<?xml version="1.0" encoding="UTF-8" standalone="no"?>
<svg
   xmlns:dc="http://purl.org/dc/elements/1.1/"
   xmlns:cc="http://creativecommons.org/ns#"
   xmlns:rdf="http://www.w3.org/1999/02/22-rdf-syntax-ns#"
   xmlns:svg="http://www.w3.org/2000/svg"
   xmlns="http://www.w3.org/2000/svg"
   xmlns:sodipodi="http://sodipodi.sourceforge.net/DTD/sodipodi-0.dtd"
   xmlns:inkscape="http://www.inkscape.org/namespaces/inkscape"
   sodipodi:docname="restore_normal.svg"
   inkscape:version="1.0.1 (3bc2e813f5, 2020-09-07)"
   id="svg8"
   version="1.1"
   viewBox="0 0 7.9374997 7.9375002"
   height="30"
   width="30">
  <defs
     id="defs2" />
  <sodipodi:namedview
     inkscape:document-rotation="0"
     inkscape:pagecheckerboard="false"
     inkscape:window-maximized="1"
     inkscape:window-y="30"
     inkscape:window-x="0"
     inkscape:window-height="1277"
     inkscape:window-width="2160"
     units="px"
     showgrid="false"
     inkscape:current-layer="layer1"
     inkscape:document-units="mm"
     inkscape:cy="13.315454"
     inkscape:cx="-13.839286"
     inkscape:zoom="11.2"
     inkscape:pageshadow="2"
     inkscape:pageopacity="0.0"
     borderopacity="1.0"
     bordercolor="#666666"
     pagecolor="#ffffff"
     id="base">
    <inkscape:grid
       id="grid2560"
       type="xygrid" />
  </sodipodi:namedview>
  <metadata
     id="metadata5">
    <rdf:RDF>
      <cc:Work
         rdf:about="">
        <dc:format>image/svg+xml</dc:format>
        <dc:type
           rdf:resource="http://purl.org/dc/dcmitype/StillImage" />
        <dc:title />
        <cc:license
           rdf:resource="" />
      </cc:Work>
    </rdf:RDF>
  </metadata>
  <g
     transform="translate(0,-289.06248)"
     id="layer1"
     inkscape:groupmode="layer"
     inkscape:label="Layer 1">
    <g
       transform="matrix(0.26458333,0,0,0.26458333,11.895874,2.9564196)"
       inkscape:label="#g3842"
       id="4" />
    <g
       transform="matrix(0.26458333,0,0,0.26458333,9.6258987,2.2045947)"
       inkscape:label="#g3842"
       id="4-7" />
    <g
       transform="matrix(0.26458333,0,0,0.26458333,8.6603107,0.81148024)"
       inkscape:label="#g3842"
       id="4-75" />
    <g
       id="g893"
       transform="translate(-4.3922917,-1.50619)">
      <path
         d="m 7.2858878,293.50208 c -0.2647268,0 -0.4778461,0.23088 -0.4778461,0.51767 v 1.553 c 0,0.28679 0.2131193,0.51767 0.4778461,0.51767 h 1.6724616 c 0.2647268,0 0.4778461,-0.23088 0.4778461,-0.51767 v -1.553 c 0,-0.28679 -0.2131193,-0.51767 -0.4778461,-0.51767 z m 0,0.51767 h 1.6724616 c 0.1323634,0 0.2389231,0.11544 0.2389231,0.25883 v 1.29417 c 0,0.14339 -0.1065597,0.25883 -0.2389231,0.25883 H 7.2858878 c -0.1323634,0 -0.2389231,-0.11544 -0.2389231,-0.25883 v -1.29417 c 0,-0.14339 0.1065597,-0.25883 0.2389231,-0.25883 z"
         fill="#cacbce"
         id="path2"
         style="fill:#cacbce;fill-opacity:1;stroke-width:0.248679" />
      <path
         d="m 7.763734,292.98442 c -0.1770587,0 -0.3294749,0.10462 -0.4120468,0.25883 h 1.8455853 c 0.2647267,0 0.4778461,0.23088 0.4778461,0.51767 v 1.29416 0.44639 c 0.1423504,-0.0894 0.2389231,-0.25458 0.2389231,-0.44639 v -1.29416 c 0,-0.43018 -0.3196791,-0.7765 -0.7167692,-0.7765 z"
         fill="#cacbce"
         id="path4-3"
         style="fill:#cacbce;fill-opacity:1;stroke-width:0.248679" />
    </g>
  </g>
</svg>
