<?xml version="1.0" encoding="UTF-8" standalone="no"?>
<svg
   xmlns:dc="http://purl.org/dc/elements/1.1/"
   xmlns:cc="http://creativecommons.org/ns#"
   xmlns:rdf="http://www.w3.org/1999/02/22-rdf-syntax-ns#"
   xmlns:svg="http://www.w3.org/2000/svg"
   xmlns="http://www.w3.org/2000/svg"
   xmlns:sodipodi="http://sodipodi.sourceforge.net/DTD/sodipodi-0.dtd"
   xmlns:inkscape="http://www.inkscape.org/namespaces/inkscape"
   sodipodi:docname="close.svg"
   inkscape:version="1.0.1 (3bc2e813f5, 2020-09-07)"
   id="svg8"
   version="1.1"
   viewBox="0 0 7.9374997 7.9375002"
   height="30"
   width="30">
  <defs
     id="defs2" />
  <sodipodi:namedview
     inkscape:document-rotation="0"
     inkscape:pagecheckerboard="false"
     inkscape:window-maximized="1"
     inkscape:window-y="0"
     inkscape:window-x="0"
     inkscape:window-height="1304"
     inkscape:window-width="2160"
     units="px"
     showgrid="false"
     inkscape:current-layer="layer1"
     inkscape:document-units="mm"
     inkscape:cy="18.272706"
     inkscape:cx="9.8768456"
     inkscape:zoom="22.4"
     inkscape:pageshadow="2"
     inkscape:pageopacity="0.0"
     borderopacity="1.0"
     bordercolor="#666666"
     pagecolor="#ffffff"
     id="base">
    <inkscape:grid
       id="grid2560"
       type="xygrid" />
  </sodipodi:namedview>
  <metadata
     id="metadata5">
    <rdf:RDF>
      <cc:Work
         rdf:about="">
        <dc:format>image/svg+xml</dc:format>
        <dc:type
           rdf:resource="http://purl.org/dc/dcmitype/StillImage" />
        <dc:title />
        <cc:license
           rdf:resource="" />
      </cc:Work>
    </rdf:RDF>
  </metadata>
  <g
     transform="translate(0,-289.06248)"
     id="layer1"
     inkscape:groupmode="layer"
     inkscape:label="Layer 1">
    <g
       transform="matrix(0.26458333,0,0,0.26458333,11.895874,2.9564196)"
       inkscape:label="#g3842"
       id="4" />
    <g
       transform="matrix(0.26458333,0,0,0.26458333,8.2578527,2.6020669)"
       inkscape:label="#g3842"
       id="4-7" />
    <rect
       style="opacity:0;fill:#000000;fill-opacity:1;stroke:none;stroke-width:0.18433414;stroke-linejoin:miter;stroke-miterlimit:4;stroke-dasharray:none;stroke-opacity:1;paint-order:markers stroke fill"
       id="rect1569-36"
       width="6.2093525"
       height="6.2267418"
       x="0.86407435"
       y="289.91785"
       ry="6.5889685e-06" />
    <g
       id="g6"
       transform="matrix(0.0065117,0,0,0.00651172,2.3017515,291.36422)"
       style="fill:#383838;fill-opacity:1">
      <g
         id="g4"
         style="fill:#383838;fill-opacity:1">
        <path
           d="M 284.286,256.002 506.143,34.144 c 7.811,-7.811 7.811,-20.475 0,-28.285 -7.811,-7.81 -20.475,-7.811 -28.285,0 L 256,227.717 34.143,5.859 c -7.811,-7.811 -20.475,-7.811 -28.285,0 -7.81,7.811 -7.811,20.475 0,28.285 L 227.715,256.001 5.858,477.859 c -7.811,7.811 -7.811,20.475 0,28.285 3.905,3.905 9.024,5.857 14.143,5.857 5.119,0 10.237,-1.952 14.143,-5.857 L 256,284.287 477.857,506.144 c 3.905,3.905 9.024,5.857 14.143,5.857 5.119,0 10.237,-1.952 14.143,-5.857 7.811,-7.811 7.811,-20.475 0,-28.285 z"
           id="path2-3"
           style="fill:#383838;fill-opacity:1" />
      </g>
    </g>
  </g>
</svg>
