<svg width="30" height="30" version="1.1" viewBox="0 0 7.9375 7.9375" xmlns="http://www.w3.org/2000/svg" xmlns:xlink="http://www.w3.org/1999/xlink">
 <g transform="translate(0 -289.06)">
  <g transform="translate(1.4056 -1.9961)" fill="#383838" stroke-width=".24868">
   <path d="m1.488 293.99c-0.26473 0-0.47785 0.23088-0.47785 0.51767v1.553c0 0.28679 0.21312 0.51767 0.47785 0.51767h1.6725c0.26473 0 0.47785-0.23088 0.47785-0.51767v-1.553c0-0.28679-0.21312-0.51767-0.47785-0.51767zm0 0.51767h1.6725c0.13236 0 0.23892 0.11544 0.23892 0.25883v1.2942c0 0.14339-0.10656 0.25883-0.23892 0.25883h-1.6725c-0.13236 0-0.23892-0.11544-0.23892-0.25883v-1.2942c0-0.14339 0.10656-0.25883 0.23892-0.25883z"/>
   <path d="m1.9658 293.47c-0.17706 0-0.32947 0.10462-0.41205 0.25883h1.8456c0.26473 0 0.47785 0.23088 0.47785 0.51767v1.7406c0.14235-0.0894 0.23892-0.25458 0.23892-0.44639v-1.2942c0-0.43018-0.31968-0.7765-0.71677-0.7765z"/>
  </g>
 </g>
</svg>
